<svg xmlns="http://www.w3.org/2000/svg" viewBox="0 0 200 200" width="200" height="200">
  <defs>
    <linearGradient id="blueGradient" x1="0" y1="0" x2="1" y2="1">
      <stop offset="0%" stop-color="#22B6FF" />
      <stop offset="100%" stop-color="#0B88D7" />
    </linearGradient>
    <radialGradient id="ringGlow" cx="50%" cy="50%" r="50%">
      <stop offset="0%" stop-color="#FFFFFF" stop-opacity="0.8" />
      <stop offset="100%" stop-color="#D9EEFF" stop-opacity="0" />
    </radialGradient>
    <filter id="softShadow" x="-20%" y="-20%" width="140%" height="140%">
      <feDropShadow dx="0" dy="8" stdDeviation="10" flood-color="#000" flood-opacity="0.08" />
    </filter>
  </defs>

  <circle cx="100" cy="100" r="100" fill="#fff" />
  <circle cx="100" cy="100" r="96" fill="url(#ringGlow)" />
  <g filter="url(#softShadow)">
    <path d="M34 98c24-40 78-70 118-42" stroke="url(#blueGradient)" stroke-width="18" stroke-linecap="round" fill="none" />
    <path d="M42 126c22 0 48-4 82-26 25-16 54-26 78-20" stroke="url(#blueGradient)" stroke-width="16" stroke-linecap="round" fill="none" />
  </g>
  <circle cx="162" cy="54" r="12" fill="#22B6FF" />
  <circle cx="46" cy="50" r="12" fill="#22B6FF" />
  <circle cx="104" cy="170" r="12" fill="#22B6FF" />

  <path d="M80 88c0-12 10-22 22-22 11 0 20 7 20 18 0 1-.1 2.2-.3 3.2l-8.4 52.5c-.4 2.6-2.6 4.5-5.2 4.5h-9.8c-2.9 0-5.4-2.2-5.6-5.1l-1.5-24.3c-10.2-3.4-16.4-12.5-16.4-23.9zm12 0c0 6 4.6 11 10.2 11 4.4 0 8-3.8 8-8.4 0-4.5-3.6-8.4-8-8.4-5.6 0-10.2 4.9-10.2 8.4z" fill="url(#blueGradient)" />
  <circle cx="128" cy="66" r="7" fill="#22B6FF" />
</svg>
